<?xml version="1.0" encoding="UTF-8"?>
<svg version="1.1" xmlns="http://www.w3.org/2000/svg" width="512" height="512">
<path d="M0 0 C1.02496582 -0.00961258 2.04993164 -0.01922516 3.10595703 -0.02912903 C6.40660961 -0.05375355 9.70707886 -0.06637767 13.0078125 -0.07421875 C14.69055267 -0.07914337 14.69055267 -0.07914337 16.4072876 -0.08416748 C32.40267465 -0.0993431 47.72359371 0.5097415 63.43554688 3.70068359 C70.95072239 5.19854895 78.52171262 6.36007742 86.1328125 7.23828125 C86.1328125 7.89828125 86.1328125 8.55828125 86.1328125 9.23828125 C89.1028125 9.56828125 92.0728125 9.89828125 95.1328125 10.23828125 C95.1328125 10.89828125 95.1328125 11.55828125 95.1328125 12.23828125 C98.1028125 12.56828125 101.0728125 12.89828125 104.1328125 13.23828125 C104.1328125 13.89828125 104.1328125 14.55828125 104.1328125 15.23828125 C105.7828125 15.23828125 107.4328125 15.23828125 109.1328125 15.23828125 C109.1328125 15.89828125 109.1328125 16.55828125 109.1328125 17.23828125 C110.7828125 17.23828125 112.4328125 17.23828125 114.1328125 17.23828125 C114.1328125 17.89828125 114.1328125 18.55828125 114.1328125 19.23828125 C114.94105469 19.32335937 115.74929688 19.4084375 116.58203125 19.49609375 C121.05522286 20.4310843 124.83519475 22.15808457 128.9453125 24.11328125 C129.72068359 24.46519531 130.49605469 24.81710938 131.29492188 25.1796875 C132.3999707 25.69982422 132.3999707 25.69982422 133.52734375 26.23046875 C134.19612549 26.5435498 134.86490723 26.85663086 135.55395508 27.17919922 C137.1328125 28.23828125 137.1328125 28.23828125 138.1328125 31.23828125 C139.00607178 31.33270508 139.87933105 31.42712891 140.77905273 31.52441406 C144.48343306 32.31291287 146.66125873 33.55539005 149.79296875 35.66015625 C150.83388672 36.35625 151.87480469 37.05234375 152.94726562 37.76953125 C154.01912109 38.50171875 155.09097656 39.23390625 156.1953125 39.98828125 C157.27103516 40.705 158.34675781 41.42171875 159.45507812 42.16015625 C164.49366389 45.55878075 168.85503139 48.90808194 173.1328125 53.23828125 C173.8546875 53.58890625 174.5765625 53.93953125 175.3203125 54.30078125 C177.1328125 55.23828125 177.1328125 55.23828125 178.1328125 57.30078125 C178.4628125 57.94015625 178.7928125 58.57953125 179.1328125 59.23828125 C179.7515625 59.36203125 180.3703125 59.48578125 181.0078125 59.61328125 C183.1328125 60.23828125 183.1328125 60.23828125 184.63671875 62.6328125 C188.02289355 67.93236488 192.75377338 72.14712306 197.1953125 76.55078125 C198.10603516 77.46923828 199.01675781 78.38769531 199.95507812 79.33398438 C201.26702148 80.64206055 201.26702148 80.64206055 202.60546875 81.9765625 C203.40218994 82.77102783 204.19891113 83.56549316 205.01977539 84.3840332 C207.08446001 86.43774416 207.08446001 86.43774416 210.1328125 87.23828125 C210.51502117 88.55843481 210.84354861 89.89469824 211.1328125 91.23828125 C212.87621989 93.53269867 214.64976226 95.72857223 216.5078125 97.92578125 C240.45199549 127.10842656 256.52478318 162.98930506 265.0078125 199.61328125 C265.18666992 200.3820459 265.36552734 201.15081055 265.54980469 201.94287109 C266.14327477 204.69939834 266.6480741 207.46033337 267.1328125 210.23828125 C267.25669342 210.93705383 267.38057434 211.63582642 267.50820923 212.35577393 C270.02196036 226.89026448 270.65856696 241.13163993 270.5703125 255.86328125 C270.56525192 257.50804443 270.56525192 257.50804443 270.56008911 259.18603516 C270.48600958 275.83075195 269.89847117 291.95601084 266.1328125 308.23828125 C265.88611816 309.31287598 265.63942383 310.3874707 265.38525391 311.49462891 C255.94504882 351.33588734 238.73630581 388.83916245 211.84765625 419.93359375 C210.01665825 422.07034679 210.01665825 422.07034679 209.63671875 424.41796875 C209.47042969 425.01867187 209.30414063 425.619375 209.1328125 426.23828125 C208.27248413 426.65255371 208.27248413 426.65255371 207.39477539 427.07519531 C204.55225268 428.53680116 202.70015961 430.41165601 200.4375 432.66796875 C199.55707031 433.54582031 198.67664063 434.42367188 197.76953125 435.328125 C196.85816406 436.24722656 195.94679688 437.16632813 195.0078125 438.11328125 C194.08871094 439.02464844 193.16960937 439.93601562 192.22265625 440.875 C191.34480469 441.75542969 190.46695312 442.63585937 189.5625 443.54296875 C188.76054199 444.34718262 187.95858398 445.15139648 187.13232422 445.97998047 C185.31190232 448.03601253 184.33817161 449.81350831 183.1328125 452.23828125 C181.46614583 452.90494792 179.79947917 453.57161458 178.1328125 454.23828125 C176.99930716 456.25497952 176.99930716 456.25497952 176.1328125 458.23828125 C175.1428125 458.56828125 174.1528125 458.89828125 173.1328125 459.23828125 C172.4625 459.93695313 171.7921875 460.635625 171.1015625 461.35546875 C167.18723543 465.43093952 162.33817429 468.28893895 157.6328125 471.36328125 C156.69566406 471.98332031 155.75851562 472.60335938 154.79296875 473.2421875 C142.9676899 481.04183951 142.9676899 481.04183951 140.0078125 481.73828125 C138.04209331 482.09228505 138.04209331 482.09228505 136.75097656 483.64404297 C133.96032405 486.39343357 130.40015229 487.72185601 126.8828125 489.36328125 C126.14417969 489.72292969 125.40554688 490.08257812 124.64453125 490.453125 C120.09831756 492.59393462 116.17311148 493.67824803 111.1328125 494.23828125 C108.97070904 494.92869999 108.97070904 494.92869999 107.1953125 495.80078125 C106.1846875 496.27515625 105.1740625 496.74953125 104.1328125 497.23828125 C104.1328125 497.89828125 104.1328125 498.55828125 104.1328125 499.23828125 C98.85163932 501.22340308 93.97382615 502.51316038 88.3515625 502.98828125 C84.84216201 503.38370666 81.53625606 504.31006937 78.1328125 505.23828125 C78.1328125 505.89828125 78.1328125 506.55828125 78.1328125 507.23828125 C77.03839844 507.19832031 75.94398438 507.15835937 74.81640625 507.1171875 C69.48078813 507.11836145 64.41334776 508.14360316 59.1953125 509.17578125 C57.31179182 509.54212926 55.42767913 509.90544755 53.54296875 510.265625 C52.71933838 510.42796631 51.89570801 510.59030762 51.04711914 510.75756836 C43.44958441 512.01077653 35.95964868 512.41609162 28.265625 512.4765625 C26.72790436 512.49098137 26.72790436 512.49098137 25.15911865 512.50569153 C21.85864921 512.53031142 18.55836296 512.54293805 15.2578125 512.55078125 C14.13731506 512.55406433 13.01681763 512.55734741 11.86236572 512.56072998 C-6.57637174 512.57824819 -24.3315802 511.77679498 -42.265625 507.11328125 C-45.16207738 506.40958783 -47.42512027 506.00820742 -50.3671875 506.11328125 C-52.0996875 506.17515625 -52.0996875 506.17515625 -53.8671875 506.23828125 C-53.8671875 505.57828125 -53.8671875 504.91828125 -53.8671875 504.23828125 C-54.55425781 504.10550781 -55.24132812 503.97273438 -55.94921875 503.8359375 C-56.85027344 503.65933594 -57.75132812 503.48273438 -58.6796875 503.30078125 C-60.01966797 503.03974609 -60.01966797 503.03974609 -61.38671875 502.7734375 C-64.29935483 502.145042 -67.04160283 501.18014281 -69.8671875 500.23828125 C-71.86392234 499.88591628 -73.86369489 499.54993566 -75.8671875 499.23828125 C-75.8671875 498.57828125 -75.8671875 497.91828125 -75.8671875 497.23828125 C-77.40555458 496.58462726 -78.94807516 495.94074522 -80.4921875 495.30078125 C-81.35070312 494.94113281 -82.20921875 494.58148438 -83.09375 494.2109375 C-85.82423877 493.15055461 -85.82423877 493.15055461 -88.65234375 492.8515625 C-93.00845651 492.0205665 -96.692215 490.26013518 -100.6796875 488.36328125 C-101.45505859 488.01136719 -102.23042969 487.65945313 -103.02929688 487.296875 C-103.76599609 486.95011719 -104.50269531 486.60335938 -105.26171875 486.24609375 C-105.93050049 485.9330127 -106.59928223 485.61993164 -107.28833008 485.29736328 C-108.8671875 484.23828125 -108.8671875 484.23828125 -109.8671875 481.23828125 C-110.73827148 481.14530762 -111.60935547 481.05233398 -112.50683594 480.95654297 C-116.25000602 480.15645532 -118.46635836 478.87387026 -121.6328125 476.74609375 C-122.68726562 476.04097656 -123.74171875 475.33585937 -124.828125 474.609375 C-125.91351563 473.86816406 -126.99890625 473.12695312 -128.1171875 472.36328125 C-129.22861731 471.62157197 -130.34059202 470.88067854 -131.453125 470.140625 C-139.59161086 464.65164621 -139.59161086 464.65164621 -141.8671875 461.23828125 C-142.8571875 460.90828125 -143.8471875 460.57828125 -144.8671875 460.23828125 C-145.1971875 459.57828125 -145.5271875 458.91828125 -145.8671875 458.23828125 C-146.5271875 457.92890625 -147.1871875 457.61953125 -147.8671875 457.30078125 C-149.8671875 456.23828125 -149.8671875 456.23828125 -150.8671875 453.23828125 C-151.4653125 453.13515625 -152.0634375 453.03203125 -152.6796875 452.92578125 C-154.8671875 452.23828125 -154.8671875 452.23828125 -156.375 449.83984375 C-159.75867296 444.54109222 -164.48965132 440.32794931 -168.9296875 435.92578125 C-169.84041016 435.00732422 -170.75113281 434.08886719 -171.68945312 433.14257812 C-172.56408203 432.27052734 -173.43871094 431.39847656 -174.33984375 430.5 C-175.13656494 429.70553467 -175.93328613 428.91106934 -176.75415039 428.0925293 C-178.81883501 426.03881834 -178.81883501 426.03881834 -181.8671875 425.23828125 C-182.2509198 423.91856976 -182.57835296 422.58195662 -182.8671875 421.23828125 C-184.45673636 418.69161185 -186.37020566 416.3955585 -188.2421875 414.05078125 C-188.7371875 413.40947266 -189.2321875 412.76816406 -189.7421875 412.10742188 C-190.22429687 411.49705078 -190.70640625 410.88667969 -191.203125 410.2578125 C-191.64188965 409.70198486 -192.0806543 409.14615723 -192.53271484 408.57348633 C-193.94128418 406.96499404 -193.94128418 406.96499404 -196.8671875 406.23828125 C-196.98126953 405.19800781 -196.98126953 405.19800781 -197.09765625 404.13671875 C-198.06877963 400.478985 -200.00059599 397.88464425 -202.1796875 394.86328125 C-229.83871647 354.74226975 -242.58992248 304.90191277 -242.3046875 256.61328125 C-242.30164612 255.51776947 -242.29860474 254.42225769 -242.29547119 253.29354858 C-242.22719952 236.64208836 -241.56727998 220.53770604 -237.8671875 204.23828125 C-237.64756348 203.25021484 -237.42793945 202.26214844 -237.20166016 201.24414062 C-228.41146876 162.74894998 -211.56011962 126.36493593 -186.39453125 95.84033203 C-184.4422817 93.43996568 -182.91882807 91.37338518 -181.80859375 88.46875 C-180.8671875 86.23828125 -180.8671875 86.23828125 -179.10180664 85.37573242 C-176.26514102 83.9318315 -174.42486914 82.05526813 -172.171875 79.80859375 C-171.29144531 78.93074219 -170.41101563 78.05289063 -169.50390625 77.1484375 C-168.59253906 76.22933594 -167.68117188 75.31023437 -166.7421875 74.36328125 C-165.82308594 73.45191406 -164.90398437 72.54054688 -163.95703125 71.6015625 C-163.07917969 70.72113281 -162.20132813 69.84070313 -161.296875 68.93359375 C-160.09393799 67.72727295 -160.09393799 67.72727295 -158.86669922 66.49658203 C-157.04627732 64.44054997 -156.07254661 62.66305419 -154.8671875 60.23828125 C-153.20052083 59.57161458 -151.53385417 58.90494792 -149.8671875 58.23828125 C-148.73368216 56.22158298 -148.73368216 56.22158298 -147.8671875 54.23828125 C-146.8771875 53.90828125 -145.8871875 53.57828125 -144.8671875 53.23828125 C-144.3721875 52.24828125 -144.3721875 52.24828125 -143.8671875 51.23828125 C-142.8771875 50.90828125 -141.8871875 50.57828125 -140.8671875 50.23828125 C-140.155625 49.50867187 -139.4440625 48.7790625 -138.7109375 48.02734375 C-135.23598389 44.61921618 -131.47286932 42.19440073 -127.3671875 39.61328125 C-126.62082031 39.13632812 -125.87445313 38.659375 -125.10546875 38.16796875 C-114.44196284 31.37352251 -114.44196284 31.37352251 -111.7421875 30.73828125 C-109.80071388 30.40076393 -109.80071388 30.40076393 -108.671875 28.93359375 C-106.14024253 26.55539355 -103.19800356 25.14718967 -100.1171875 23.61328125 C-99.22386719 23.14535156 -99.22386719 23.14535156 -98.3125 22.66796875 C-94.1339689 20.56965876 -90.46714585 19.8319908 -85.8671875 19.23828125 C-83.5316069 18.44940851 -81.21694707 17.59540108 -78.9296875 16.67578125 C-77.21458984 15.99322266 -77.21458984 15.99322266 -75.46484375 15.296875 C-74.60761719 14.94753906 -73.75039062 14.59820312 -72.8671875 14.23828125 C-72.8671875 13.57828125 -72.8671875 12.91828125 -72.8671875 12.23828125 C-70.8871875 12.23828125 -68.9071875 12.23828125 -66.8671875 12.23828125 C-66.8671875 11.57828125 -66.8671875 10.91828125 -66.8671875 10.23828125 C-66.26390625 10.18929688 -65.660625 10.1403125 -65.0390625 10.08984375 C-64.23984375 10.01507813 -63.440625 9.9403125 -62.6171875 9.86328125 C-61.82828125 9.79367187 -61.039375 9.7240625 -60.2265625 9.65234375 C-57.7691861 9.22108233 -56.04138953 8.43315521 -53.8671875 7.23828125 C-51.3693315 6.43539896 -49.0304434 6.14089747 -46.41015625 5.8359375 C-40.2534802 5.0787179 -34.17967155 3.85477307 -28.08789062 2.69921875 C-27.16041016 2.52648437 -26.23292969 2.35375 -25.27734375 2.17578125 C-24.45371338 2.01980469 -23.63008301 1.86382812 -22.78149414 1.703125 C-15.17837853 0.49039717 -7.6949788 0.06047966 0 0 Z " fill="#FEFEFE" transform="translate(241.8671875,-0.23828125)"/>
<path d="M0 0 C13.16079638 -0.16234846 26.32135368 -0.28665039 39.4829483 -0.3626852 C45.59478684 -0.39918254 51.70593918 -0.44867094 57.81738281 -0.52807617 C63.71779604 -0.60425782 69.6175502 -0.64601661 75.51841736 -0.6641407 C77.7671089 -0.67705276 80.01576525 -0.7022678 82.26417542 -0.7401104 C85.41974183 -0.79109826 88.57260209 -0.79791652 91.72851562 -0.79467773 C92.65352875 -0.81984467 93.57854187 -0.8450116 94.53158569 -0.87094116 C100.78617929 -0.80170172 103.89751785 0.82856303 108.36086273 5.19761562 C110.66073864 7.72654379 112.81740821 10.36969707 115 13 C116.73726193 14.54378496 118.52215861 16.01833816 120.3125 17.5 C122.83638489 19.74345324 124.84079531 22.40895437 127 25 C128.14846224 26.02085532 129.31621922 27.02031935 130.5 28 C133.76428178 30.70147457 136.28518379 33.74222055 139 37 C140.14846224 38.02085532 141.31621922 39.02031935 142.5 40 C145.76428178 42.70147457 148.28518379 45.74222055 151 49 C152.14846224 50.02085532 153.31621922 51.02031935 154.5 52 C157.76428178 54.70147457 160.28518379 57.74222055 163 61 C164.14846224 62.02085532 165.31621922 63.02031935 166.5 64 C169.76428178 66.70147457 172.28518379 69.74222055 175 73 C176.14846224 74.02085532 177.31621922 75.02031935 178.5 76 C181.76428178 78.70147457 184.28518379 81.74222055 187 85 C188.14846224 86.02085532 189.31621922 87.02031935 190.5 88 C193.79678496 90.73182614 196.31836779 93.66607887 199 97 C199.763125 97.763125 200.52625 98.52625 201.3125 99.3125 C203 101 203 101 203 102 C169.67 102 136.34 102 102 102 C102 135.66 102 169.32 102 204 C99.69 202.02 97.38 200.04 95 198 C93.52279084 196.78154598 92.04066054 195.56901035 90.551651 194.36500549 C75.63392644 182.22219866 61.18966363 169.61311621 47.0625 156.5625 C46.50265836 156.04663881 45.94281672 155.53077762 45.36601019 154.99928427 C18.8914116 130.55254307 -4.25144716 108.02866884 -6.49499702 70.17484856 C-7.38865007 46.72595652 -4.49196953 22.98458087 0 0 Z " fill="#00AAFD" transform="translate(154,239)"/>
<path d="M0 0 C66.99 0 133.98 0 203 0 C203 33.66 203 67.32 203 102 C152.51 102.495 152.51 102.495 101 103 C101 102.01 101 101.02 101 100 C100.2575 99.773125 99.515 99.54625 98.75 99.3125 C95.41507895 97.72083314 94.25154153 95.91375963 92 93 C90.28558701 91.43770519 88.51423677 89.95967752 86.734375 88.47265625 C83.53825929 85.75883728 80.68094819 82.88523265 78.125 79.5625 C75.86842716 76.84133864 73.43782796 74.73131032 70.734375 72.47265625 C67.53825929 69.75883728 64.68094819 66.88523265 62.125 63.5625 C59.86842716 60.84133864 57.43782796 58.73131032 54.734375 56.47265625 C51.53825929 53.75883728 48.68094819 50.88523265 46.125 47.5625 C43.86842716 44.84133864 41.43782796 42.73131032 38.734375 40.47265625 C35.53825929 37.75883728 32.68094819 34.88523265 30.125 31.5625 C28.33993347 29.40991977 26.69449777 27.83072277 24.5625 26.0625 C21.27882503 23.33656175 18.73434629 20.28121555 16 17 C14.89279246 16.02116435 13.76652565 15.06358775 12.625 14.125 C7.71010047 10.04896735 3.53902418 5.30853627 0 0 Z " fill="#87DCFD" transform="translate(155,137)"/>
<path d="M0 0 C33.33 0 66.66 0 101 0 C101 33.33 101 66.66 101 101 C93.12470011 94.24974295 93.12470011 94.24974295 89.58961487 90.71659851 C88.38878517 89.51999855 88.38878517 89.51999855 87.16369629 88.29922485 C85.88299255 87.01548477 85.88299255 87.01548477 84.57641602 85.70581055 C83.6585582 84.78970505 82.74070038 83.87359955 81.79502869 82.92973328 C79.29732503 80.43655644 76.80275587 77.94026595 74.30890775 75.44323325 C71.69457796 72.82635974 69.07779574 70.21194035 66.46141052 67.59712219 C62.07607202 63.21359759 57.69283471 58.82798024 53.31079102 54.44116211 C48.2394001 49.36430968 43.16438928 44.29109718 38.08752304 39.21972054 C33.7246453 34.86137191 29.36370804 30.50108884 25.00440544 26.13916427 C22.40212531 23.53532286 19.79916872 20.93216736 17.19445992 18.33075523 C14.29938642 15.43909114 11.40839358 12.54338137 8.51782227 9.6472168 C7.64985016 8.78126892 6.78187805 7.91532104 5.88760376 7.02313232 C5.1067894 6.23949814 4.32597504 5.45586395 3.52149963 4.64848328 C2.83740304 3.96400966 2.15330645 3.27953604 1.44847965 2.57432079 C0 1 0 1 0 0 Z " fill="#0055FC" transform="translate(155,342)"/>
<path d="M0 0 C33.66 0 67.32 0 102 0 C102 0.33 102 0.66 102 1 C68.67 1 35.34 1 1 1 C1 34 1 67 1 101 C66.34 101 131.68 101 199 101 C199 100.01 199 99.02 199 98 C199.99 98.33 200.98 98.66 202 99 C202.33 99.99 202.66 100.98 203 102 C188.29178314 102.1773775 173.58344871 102.34302311 158.875 102.5 C157.76271152 102.51187725 156.65042305 102.5237545 155.50442886 102.53599167 C103.66677072 103.08470899 51.8415425 103.07250565 0 103 C0 69.01 0 35.02 0 0 Z " fill="#1C9FF0" transform="translate(154,239)"/>
<path d="M0 0 C65.67 0 131.34 0 199 0 C198.67 0.66 198.34 1.32 198 2 C134.64 2.33 71.28 2.66 6 3 C5.67 4.32 5.34 5.64 5 7 C3.35 4.69 1.7 2.38 0 0 Z " fill="#91D8F9" transform="translate(155,137)"/>
<path d="M0 0 C0.66 0 1.32 0 2 0 C2.00808685 1.28373001 2.01617371 2.56746002 2.02450562 3.89009094 C2.10189437 15.97120149 2.18961515 28.05219842 2.28752708 40.13316059 C2.33753391 46.34452888 2.38386357 52.55587979 2.421875 58.76733398 C2.45867234 64.75851866 2.50501716 70.74955949 2.55806351 76.74062157 C2.57663701 79.02959871 2.59173395 81.31860672 2.60334396 83.60762978 C2.62015579 86.80668585 2.6491787 90.00541036 2.68115234 93.2043457 C2.68331253 94.15668594 2.68547272 95.10902618 2.68769836 96.09022522 C2.69886185 96.96100708 2.71002533 97.83178894 2.7215271 98.72895813 C2.72705786 99.48575017 2.73258862 100.24254221 2.73828697 101.02226734 C2.89439771 103.31907878 2.89439771 103.31907878 5 106 C3.35 105.67 1.7 105.34 0 105 C0 70.35 0 35.7 0 0 Z " fill="#BDEBFD" transform="translate(152,239)"/>
<path d="M0 0 C33.33 0 66.66 0 101 0 C101 33.33 101 66.66 101 101 C99 99 99 99 98.79745483 95.03903198 C98.80946569 93.28487085 98.83283612 91.53076746 98.86474609 89.77685547 C98.87420761 88.8207135 98.88366913 87.86457153 98.89341736 86.87945557 C98.92718529 83.70850875 98.97527591 80.53794572 99.0234375 77.3671875 C99.04959531 75.17287204 99.07486306 72.9785458 99.09927368 70.78421021 C99.16601586 65.00053299 99.24488892 59.21708158 99.32623291 53.43359375 C99.42126843 46.49873643 99.50133596 39.56369231 99.58389282 32.62867737 C99.71108727 22.08559646 99.85737164 11.54293434 100 1 C68.32 1 36.64 1 4 1 C4 1.66 4 2.32 4 3 C4.66 3.33 5.32 3.66 6 4 C5.01 4 4.02 4 3 4 C2.01 2.68 1.02 1.36 0 0 Z " fill="#105EE4" transform="translate(155,342)"/>
<path d="M0 0 C33.33 0 66.66 0 101 0 C101 0.33 101 0.66 101 1 C69.32 1.33 37.64 1.66 5 2 C5 2.66 5 3.32 5 4 C5.66 4.33 6.32 4.66 7 5 C6.67 5.66 6.34 6.32 6 7 C5.01 6.34 4.02 5.68 3 5 C3 4.34 3 3.68 3 3 C2.01 2.67 1.02 2.34 0 2 C0 1.34 0 0.68 0 0 Z " fill="#EAFEFF" transform="translate(257,239)"/>
<path d="M0 0 C0.99 0.33 1.98 0.66 3 1 C3.495 2.485 3.495 2.485 4 4 C-29.33 4 -62.66 4 -97 4 C-97 3.67 -97 3.34 -97 3 C-64.99 3 -32.98 3 0 3 C0 2.01 0 1.02 0 0 Z " fill="#179FE5" transform="translate(353,337)"/>
<path d="M0 0 C5.94 0 11.88 0 18 0 C18 0.33 18 0.66 18 1 C11.565 1.495 11.565 1.495 5 2 C5 2.66 5 3.32 5 4 C5.66 4.33 6.32 4.66 7 5 C6.67 5.66 6.34 6.32 6 7 C5.01 6.34 4.02 5.68 3 5 C3 4.34 3 3.68 3 3 C2.01 2.67 1.02 2.34 0 2 C0 1.34 0 0.68 0 0 Z " fill="#DAF8FE" transform="translate(257,239)"/>
<path d="M0 0 C4.1424367 1.38081223 5.32203099 3.59825558 8 7 C6.33333333 7 4.66666667 7 3 7 C2.67 6.01 2.34 5.02 2 4 C1.01 3.67 0.02 3.34 -1 3 C-0.67 2.01 -0.34 1.02 0 0 Z " fill="#21ABED" transform="translate(273,257)"/>
<path d="M0 0 C0.99 0.33 1.98 0.66 3 1 C3.33 1.99 3.66 2.98 4 4 C-0.62 4 -5.24 4 -10 4 C-10 3.67 -10 3.34 -10 3 C-6.7 3 -3.4 3 0 3 C0 2.01 0 1.02 0 0 Z " fill="#22A5E3" transform="translate(353,337)"/>
<path d="M0 0 C0.33 0 0.66 0 1 0 C1.28875 1.093125 1.5775 2.18625 1.875 3.3125 C2.81893204 7.04013845 2.81893204 7.04013845 5 10 C3.35 9.67 1.7 9.34 0 9 C0 6.03 0 3.06 0 0 Z " fill="#DEF4FD" transform="translate(152,335)"/>
<path d="M0 0 C3.81684226 1.55500981 6.19195732 4.03595495 9 7 C8.67 7.66 8.34 8.32 8 9 C6.66368764 7.6905332 5.33102075 6.37734515 4 5.0625 C3.2575 4.33160156 2.515 3.60070312 1.75 2.84765625 C0 1 0 1 0 0 Z " fill="#FFFFFF" transform="translate(433,69)"/>
<path d="M0 0 C0 3 0 3 -2.5 5.6875 C-3.325 6.450625 -4.15 7.21375 -5 8 C-5.66 7.67 -6.32 7.34 -7 7 C-4.69 4.69 -2.38 2.38 0 0 Z " fill="#FFFFFF" transform="translate(440,435)"/>
<path d="M0 0 C2.31 1.98 4.62 3.96 7 6 C4 6 4 6 1.8125 4.125 C0 2 0 2 0 0 Z " fill="#FFFFFF" transform="translate(71,435)"/>
<path d="M0 0 C0.66 0.33 1.32 0.66 2 1 C-1.465 3.97 -1.465 3.97 -5 7 C-3.38262276 3.76524552 -2.52370777 2.29427979 0 0 Z " fill="#FFFFFF" transform="translate(76,70)"/>
<path d="M0 0 C-2.64 0.33 -5.28 0.66 -8 1 C-4.93251126 -0.86240388 -3.40254489 -1.2151946 0 0 Z " fill="#FFFFFF" transform="translate(316,508)"/>
<path d="M0 0 C-2.64 0.33 -5.28 0.66 -8 1 C-4.93251126 -0.86240388 -3.40254489 -1.2151946 0 0 Z " fill="#FFFFFF" transform="translate(328,505)"/>
<path d="M0 0 C2.64 0.33 5.28 0.66 8 1 C5.39417629 1.93065133 4.35801776 2.14917407 1.75 1.0625 C1.1725 0.711875 0.595 0.36125 0 0 Z " fill="#FFFFFF" transform="translate(308,3)"/>
<path d="M0 0 C-2.35438733 1.42944945 -3.48032433 2.08661261 -6.25 1.625 C-6.8275 1.41875 -7.405 1.2125 -8 1 C-5.07175348 0.02391783 -3.04386724 -0.08226668 0 0 Z " fill="#FFFFFF" transform="translate(204,3)"/>
<path d="M0 0 C0.33 0 0.66 0 1 0 C1 2.31 1 4.62 1 7 C0.67 7 0.34 7 0 7 C0 4.69 0 2.38 0 0 Z " fill="#FFFFFF" transform="translate(511,290)"/>
<path d="M0 0 C0.33 0 0.66 0 1 0 C1 2.31 1 4.62 1 7 C0.67 7 0.34 7 0 7 C0 4.69 0 2.38 0 0 Z " fill="#FFFFFF" transform="translate(0,290)"/>
<path d="M0 0 C0.33 0 0.66 0 1 0 C1 2.31 1 4.62 1 7 C0.67 7 0.34 7 0 7 C0 4.69 0 2.38 0 0 Z " fill="#FFFFFF" transform="translate(511,215)"/>
<path d="M0 0 C0.33 0 0.66 0 1 0 C1 2.31 1 4.62 1 7 C0.67 7 0.34 7 0 7 C0 4.69 0 2.38 0 0 Z " fill="#FFFFFF" transform="translate(0,215)"/>
<path d="M0 0 C2.31 0 4.62 0 7 0 C7 0.33 7 0.66 7 1 C4.69 1 2.38 1 0 1 C0 0.67 0 0.34 0 0 Z " fill="#FFFFFF" transform="translate(290,0)"/>
<path d="M0 0 C1.98 0 3.96 0 6 0 C6 0.33 6 0.66 6 1 C4.02 1 2.04 1 0 1 C0 0.67 0 0.34 0 0 Z " fill="#FFFFFF" transform="translate(290,511)"/>
<path d="M0 0 C1.98 0 3.96 0 6 0 C6 0.33 6 0.66 6 1 C4.02 1 2.04 1 0 1 C0 0.67 0 0.34 0 0 Z " fill="#FFFFFF" transform="translate(216,511)"/>
<path d="M0 0 C1.98 0 3.96 0 6 0 C6 0.33 6 0.66 6 1 C4.02 1 2.04 1 0 1 C0 0.67 0 0.34 0 0 Z " fill="#FFFFFF" transform="translate(204,509)"/>
<path d="M0 0 C0.33 0 0.66 0 1 0 C1 1.98 1 3.96 1 6 C0.67 6 0.34 6 0 6 C0 4.02 0 2.04 0 0 Z " fill="#FFFFFF" transform="translate(510,297)"/>
<path d="M0 0 C0.33 0 0.66 0 1 0 C1 1.98 1 3.96 1 6 C0.67 6 0.34 6 0 6 C0 4.02 0 2.04 0 0 Z " fill="#FFFFFF" transform="translate(1,297)"/>
<path d="M0 0 C0.33 0 0.66 0 1 0 C1 1.98 1 3.96 1 6 C0.67 6 0.34 6 0 6 C0 4.02 0 2.04 0 0 Z " fill="#FFFFFF" transform="translate(510,209)"/>
<path d="M0 0 C0.33 0 0.66 0 1 0 C1 1.98 1 3.96 1 6 C0.67 6 0.34 6 0 6 C0 4.02 0 2.04 0 0 Z " fill="#FFFFFF" transform="translate(1,209)"/>
<path d="M0 0 C1.98 0 3.96 0 6 0 C6 0.33 6 0.66 6 1 C4.02 1 2.04 1 0 1 C0 0.67 0 0.34 0 0 Z " fill="#FFFFFF" transform="translate(204,2)"/>
<path d="M0 0 C1.98 0 3.96 0 6 0 C6 0.33 6 0.66 6 1 C4.02 1 2.04 1 0 1 C0 0.67 0 0.34 0 0 Z " fill="#FFFFFF" transform="translate(216,0)"/>
<path d="M0 0 C1.65 0 3.3 0 5 0 C5 0.33 5 0.66 5 1 C3.35 1 1.7 1 0 1 C0 0.67 0 0.34 0 0 Z " fill="#FFFFFF" transform="translate(297,510)"/>
<path d="M0 0 C1.65 0 3.3 0 5 0 C5 0.33 5 0.66 5 1 C3.35 1 1.7 1 0 1 C0 0.67 0 0.34 0 0 Z " fill="#FFFFFF" transform="translate(210,510)"/>
<path d="M0 0 C0.33 0 0.66 0 1 0 C1 1.65 1 3.3 1 5 C0.67 5 0.34 5 0 5 C0 3.35 0 1.7 0 0 Z " fill="#FFFFFF" transform="translate(507,312)"/>
<path d="M0 0 C0.33 0 0.66 0 1 0 C1 1.65 1 3.3 1 5 C0.67 5 0.34 5 0 5 C0 3.35 0 1.7 0 0 Z " fill="#FFFFFF" transform="translate(4,312)"/>
<path d="M0 0 C0.33 0 0.66 0 1 0 C1 1.65 1 3.3 1 5 C0.67 5 0.34 5 0 5 C0 3.35 0 1.7 0 0 Z " fill="#FFFFFF" transform="translate(509,303)"/>
<path d="M0 0 C0.33 0 0.66 0 1 0 C1 1.65 1 3.3 1 5 C0.67 5 0.34 5 0 5 C0 3.35 0 1.7 0 0 Z " fill="#FFFFFF" transform="translate(2,303)"/>
<path d="M0 0 C0.33 0 0.66 0 1 0 C1 1.65 1 3.3 1 5 C0.67 5 0.34 5 0 5 C0 3.35 0 1.7 0 0 Z " fill="#FFFFFF" transform="translate(509,204)"/>
<path d="M0 0 C0.33 0 0.66 0 1 0 C1 1.65 1 3.3 1 5 C0.67 5 0.34 5 0 5 C0 3.35 0 1.7 0 0 Z " fill="#FFFFFF" transform="translate(2,204)"/>
<path d="M0 0 C0.33 0 0.66 0 1 0 C1 1.65 1 3.3 1 5 C0.67 5 0.34 5 0 5 C0 3.35 0 1.7 0 0 Z " fill="#FFFFFF" transform="translate(507,195)"/>
<path d="M0 0 C0.33 0 0.66 0 1 0 C1 1.65 1 3.3 1 5 C0.67 5 0.34 5 0 5 C0 3.35 0 1.7 0 0 Z " fill="#FFFFFF" transform="translate(4,195)"/>
<path d="M0 0 C1.65 0 3.3 0 5 0 C5 0.33 5 0.66 5 1 C3.35 1 1.7 1 0 1 C0 0.67 0 0.34 0 0 Z " fill="#FFFFFF" transform="translate(297,1)"/>
<path d="M0 0 C1.65 0 3.3 0 5 0 C5 0.33 5 0.66 5 1 C3.35 1 1.7 1 0 1 C0 0.67 0 0.34 0 0 Z " fill="#FFFFFF" transform="translate(210,1)"/>
<path d="M0 0 C4 1 4 1 4 1 Z " fill="#FFFFFF" transform="translate(303,509)"/>
<path d="M0 0 C4 1 4 1 4 1 Z " fill="#FFFFFF" transform="translate(200,508)"/>
<path d="M0 0 C4 1 4 1 4 1 Z " fill="#FFFFFF" transform="translate(196,507)"/>
<path d="M0 0 C4 1 4 1 4 1 Z " fill="#FFFFFF" transform="translate(192,506)"/>
<path d="M0 0 C1 4 1 4 1 4 Z " fill="#FFFFFF" transform="translate(504,324)"/>
<path d="M0 0 C1 4 1 4 1 4 Z " fill="#FFFFFF" transform="translate(7,324)"/>
<path d="M0 0 C1 4 1 4 1 4 Z " fill="#FFFFFF" transform="translate(506,317)"/>
<path d="M0 0 C1 4 1 4 1 4 Z " fill="#FFFFFF" transform="translate(5,317)"/>
<path d="M0 0 C1 4 1 4 1 4 Z " fill="#FFFFFF" transform="translate(508,308)"/>
<path d="M0 0 C1 4 1 4 1 4 Z " fill="#FFFFFF" transform="translate(3,308)"/>
<path d="M0 0 C1 4 1 4 1 4 Z " fill="#FFFFFF" transform="translate(508,200)"/>
<path d="M0 0 C1 4 1 4 1 4 Z " fill="#FFFFFF" transform="translate(3,200)"/>
<path d="M0 0 C1 4 1 4 1 4 Z " fill="#FEFEFE" transform="translate(5,191)"/>
<path d="M0 0 C1 4 1 4 1 4 Z " fill="#FFFFFF" transform="translate(506,191)"/>
<path d="M0 0 C1 4 1 4 1 4 Z " fill="#FFFFFF" transform="translate(504,184)"/>
<path d="M0 0 C1 4 1 4 1 4 Z " fill="#FEFEFE" transform="translate(7,184)"/>
<path d="M0 0 C4 1 4 1 4 1 Z " fill="#FFFFFF" transform="translate(184,7)"/>
<path d="M0 0 C4 1 4 1 4 1 Z " fill="#FFFFFF" transform="translate(192,5)"/>
<path d="M0 0 C4 1 4 1 4 1 Z " fill="#FFFFFF" transform="translate(303,2)"/>
<path d="M0 0 C3 1 3 1 3 1 Z " fill="#FFFFFF" transform="translate(185,504)"/>
<path d="M0 0 C3 1 3 1 3 1 Z " fill="#FFFFFF" transform="translate(328,503)"/>
<path d="M0 0 C3 1 3 1 3 1 Z " fill="#FFFFFF" transform="translate(181,503)"/>
<path d="M0 0 C3 1 3 1 3 1 Z " fill="#FFFFFF" transform="translate(331,502)"/>
<path d="M0 0 C3 1 3 1 3 1 Z " fill="#FFFFFF" transform="translate(178,502)"/>
<path d="M0 0 C3 1 3 1 3 1 Z " fill="#FFFFFF" transform="translate(172,500)"/>
<path d="M0 0 C3 1 3 1 3 1 Z " fill="#FEFEFE" transform="translate(348,496)"/>
<path d="M0 0 C3 1 3 1 3 1 Z " fill="#FFFFFF" transform="translate(161,496)"/>
<path d="M0 0 C3 1 3 1 3 1 Z " fill="#FFFFFF" transform="translate(353,494)"/>
<path d="M0 0 C3 1 3 1 3 1 Z " fill="#FFFFFF" transform="translate(156,494)"/>
<path d="" fill="#FFFFFF" transform="translate(0,0)"/>
<path d="" fill="#FFFFFF" transform="translate(0,0)"/>
<path d="" fill="#FEFEFE" transform="translate(0,0)"/>
<path d="" fill="#FEFEFE" transform="translate(0,0)"/>
<path d="" fill="#FEFEFE" transform="translate(0,0)"/>
<path d="" fill="#FEFEFE" transform="translate(0,0)"/>
<path d="" fill="#FEFEFE" transform="translate(0,0)"/>
<path d="" fill="#FEFEFE" transform="translate(0,0)"/>
<path d="" fill="#FEFEFE" transform="translate(0,0)"/>
<path d="" fill="#FFFFFF" transform="translate(0,0)"/>
<path d="" fill="#FFFFFF" transform="translate(0,0)"/>
<path d="" fill="#FFFFFF" transform="translate(0,0)"/>
<path d="" fill="#FFFFFF" transform="translate(0,0)"/>
<path d="" fill="#FFFFFF" transform="translate(0,0)"/>
<path d="" fill="#FFFFFF" transform="translate(0,0)"/>
<path d="" fill="#FFFFFF" transform="translate(0,0)"/>
<path d="" fill="#FEFEFE" transform="translate(0,0)"/>
<path d="" fill="#FFFFFF" transform="translate(0,0)"/>
<path d="" fill="#FFFFFF" transform="translate(0,0)"/>
<path d="" fill="#FFFFFF" transform="translate(0,0)"/>
<path d="" fill="#FFFFFF" transform="translate(0,0)"/>
<path d="" fill="#FFFFFF" transform="translate(0,0)"/>
<path d="" fill="#FFFFFF" transform="translate(0,0)"/>
<path d="" fill="#FFFFFF" transform="translate(0,0)"/>
<path d="" fill="#FFFFFF" transform="translate(0,0)"/>
<path d="" fill="#FFFFFF" transform="translate(0,0)"/>
<path d="" fill="#FFFFFF" transform="translate(0,0)"/>
<path d="" fill="#FFFFFF" transform="translate(0,0)"/>
<path d="" fill="#FFFFFF" transform="translate(0,0)"/>
<path d="" fill="#FFFFFF" transform="translate(0,0)"/>
<path d="M0 0 C3 1 3 1 3 1 Z " fill="#FFFFFF" transform="translate(156,17)"/>
<path d="M0 0 C3 1 3 1 3 1 Z " fill="#FFFFFF" transform="translate(161,15)"/>
<path d="M0 0 C3 1 3 1 3 1 Z " fill="#FFFFFF" transform="translate(166,13)"/>
<path d="M0 0 C3 1 3 1 3 1 Z " fill="#FEFEFE" transform="translate(337,11)"/>
<path d="M0 0 C3 1 3 1 3 1 Z " fill="#FFFFFF" transform="translate(172,11)"/>
<path d="M0 0 C3 1 3 1 3 1 Z " fill="#FFFFFF" transform="translate(331,9)"/>
<path d="M0 0 C3 1 3 1 3 1 Z " fill="#FFFFFF" transform="translate(178,9)"/>
<path d="M0 0 C3 1 3 1 3 1 Z " fill="#FFFFFF" transform="translate(328,8)"/>
<path d="M0 0 C3 1 3 1 3 1 Z " fill="#FFFFFF" transform="translate(181,8)"/>
<path d="M0 0 C3 1 3 1 3 1 Z " fill="#FFFFFF" transform="translate(317,5)"/>
<path d="M0 0 C2 1 2 1 2 1 Z " fill="#FEFEFE" transform="translate(346,497)"/>
<path d="M0 0 C2 1 2 1 2 1 Z " fill="#FFFFFF" transform="translate(164,497)"/>
<path d="M0 0 C2 1 2 1 2 1 Z " fill="#FFFFFF" transform="translate(351,495)"/>
<path d="M0 0 C2 1 2 1 2 1 Z " fill="#FFFFFF" transform="translate(159,495)"/>
<path d="M0 0 C2 1 2 1 2 1 Z " fill="#FFFFFF" transform="translate(356,493)"/>
<path d="M0 0 C2 1 2 1 2 1 Z " fill="#FFFFFF" transform="translate(154,493)"/>
<path d="M0 0 C2 1 2 1 2 1 Z " fill="#FFFFFF" transform="translate(380,481)"/>
<path d="M0 0 C2 1 2 1 2 1 Z " fill="#FFFFFF" transform="translate(130,481)"/>
<path d="" fill="#FFFFFF" transform="translate(0,0)"/>
<path d="" fill="#FFFFFF" transform="translate(0,0)"/>
<path d="" fill="#FFFFFF" transform="translate(0,0)"/>
<path d="" fill="#FFFFFF" transform="translate(0,0)"/>
<path d="" fill="#FFFFFF" transform="translate(0,0)"/>
<path d="" fill="#FFFFFF" transform="translate(0,0)"/>
<path d="" fill="#FFFFFF" transform="translate(0,0)"/>
<path d="" fill="#FFFFFF" transform="translate(0,0)"/>
<path d="" fill="#FFFFFF" transform="translate(0,0)"/>
<path d="" fill="#FFFFFF" transform="translate(0,0)"/>
<path d="" fill="#FFFFFF" transform="translate(0,0)"/>
<path d="" fill="#FFFFFF" transform="translate(0,0)"/>
<path d="" fill="#FFFFFF" transform="translate(0,0)"/>
<path d="" fill="#FFFFFF" transform="translate(0,0)"/>
<path d="" fill="#FFFFFF" transform="translate(0,0)"/>
<path d="" fill="#FFFFFF" transform="translate(0,0)"/>
<path d="" fill="#FFFFFF" transform="translate(0,0)"/>
<path d="" fill="#FFFFFF" transform="translate(0,0)"/>
<path d="" fill="#FFFFFF" transform="translate(0,0)"/>
<path d="" fill="#FFFFFF" transform="translate(0,0)"/>
<path d="" fill="#FFFFFF" transform="translate(0,0)"/>
<path d="" fill="#FFFFFF" transform="translate(0,0)"/>
<path d="" fill="#FFFFFF" transform="translate(0,0)"/>
<path d="" fill="#FFFFFF" transform="translate(0,0)"/>
<path d="" fill="#FFFFFF" transform="translate(0,0)"/>
<path d="" fill="#FFFFFF" transform="translate(0,0)"/>
<path d="" fill="#FFFFFF" transform="translate(0,0)"/>
<path d="" fill="#FFFFFF" transform="translate(0,0)"/>
<path d="" fill="#FFFFFF" transform="translate(0,0)"/>
<path d="" fill="#FFFFFF" transform="translate(0,0)"/>
<path d="" fill="#FFFFFF" transform="translate(0,0)"/>
<path d="" fill="#FFFFFF" transform="translate(0,0)"/>
<path d="" fill="#FFFFFF" transform="translate(0,0)"/>
<path d="" fill="#FFFFFF" transform="translate(0,0)"/>
<path d="" fill="#FFFFFF" transform="translate(0,0)"/>
<path d="" fill="#FFFFFF" transform="translate(0,0)"/>
<path d="" fill="#FFFFFF" transform="translate(0,0)"/>
<path d="" fill="#FFFFFF" transform="translate(0,0)"/>
<path d="" fill="#FFFFFF" transform="translate(0,0)"/>
<path d="" fill="#FFFFFF" transform="translate(0,0)"/>
<path d="" fill="#FFFFFF" transform="translate(0,0)"/>
<path d="" fill="#FFFFFF" transform="translate(0,0)"/>
<path d="" fill="#FFFFFF" transform="translate(0,0)"/>
<path d="" fill="#FFFFFF" transform="translate(0,0)"/>
<path d="" fill="#FFFFFF" transform="translate(0,0)"/>
<path d="" fill="#FFFFFF" transform="translate(0,0)"/>
<path d="" fill="#FFFFFF" transform="translate(0,0)"/>
<path d="" fill="#FFFFFF" transform="translate(0,0)"/>
<path d="" fill="#FFFFFF" transform="translate(0,0)"/>
<path d="" fill="#FEFEFE" transform="translate(0,0)"/>
<path d="" fill="#FEFEFE" transform="translate(0,0)"/>
<path d="" fill="#FEFEFE" transform="translate(0,0)"/>
<path d="" fill="#FEFEFE" transform="translate(0,0)"/>
<path d="" fill="#FEFEFE" transform="translate(0,0)"/>
<path d="" fill="#FFFFFF" transform="translate(0,0)"/>
<path d="" fill="#FFFFFF" transform="translate(0,0)"/>
<path d="" fill="#FFFFFF" transform="translate(0,0)"/>
<path d="" fill="#FFFFFF" transform="translate(0,0)"/>
<path d="" fill="#FFFFFF" transform="translate(0,0)"/>
<path d="" fill="#FFFFFF" transform="translate(0,0)"/>
<path d="" fill="#FFFFFF" transform="translate(0,0)"/>
<path d="" fill="#FFFFFF" transform="translate(0,0)"/>
<path d="" fill="#FFFFFF" transform="translate(0,0)"/>
<path d="" fill="#FFFFFF" transform="translate(0,0)"/>
<path d="" fill="#FFFFFF" transform="translate(0,0)"/>
<path d="" fill="#FFFFFF" transform="translate(0,0)"/>
<path d="" fill="#FFFFFF" transform="translate(0,0)"/>
<path d="" fill="#FFFFFF" transform="translate(0,0)"/>
<path d="" fill="#FFFFFF" transform="translate(0,0)"/>
<path d="" fill="#FFFFFF" transform="translate(0,0)"/>
<path d="" fill="#FFFFFF" transform="translate(0,0)"/>
<path d="" fill="#FFFFFF" transform="translate(0,0)"/>
<path d="" fill="#FFFFFF" transform="translate(0,0)"/>
<path d="" fill="#FFFFFF" transform="translate(0,0)"/>
<path d="" fill="#FFFFFF" transform="translate(0,0)"/>
<path d="" fill="#FFFFFF" transform="translate(0,0)"/>
<path d="" fill="#FFFFFF" transform="translate(0,0)"/>
<path d="" fill="#FFFFFF" transform="translate(0,0)"/>
<path d="" fill="#FFFFFF" transform="translate(0,0)"/>
<path d="" fill="#FFFFFF" transform="translate(0,0)"/>
<path d="" fill="#FFFFFF" transform="translate(0,0)"/>
<path d="" fill="#FFFFFF" transform="translate(0,0)"/>
<path d="" fill="#FFFFFF" transform="translate(0,0)"/>
<path d="" fill="#FFFFFF" transform="translate(0,0)"/>
<path d="" fill="#FFFFFF" transform="translate(0,0)"/>
<path d="" fill="#FFFFFF" transform="translate(0,0)"/>
<path d="" fill="#FFFFFF" transform="translate(0,0)"/>
<path d="" fill="#FFFFFF" transform="translate(0,0)"/>
<path d="" fill="#FFFFFF" transform="translate(0,0)"/>
<path d="" fill="#FFFFFF" transform="translate(0,0)"/>
<path d="" fill="#FFFFFF" transform="translate(0,0)"/>
<path d="" fill="#FFFFFF" transform="translate(0,0)"/>
<path d="" fill="#FFFFFF" transform="translate(0,0)"/>
<path d="" fill="#FFFFFF" transform="translate(0,0)"/>
<path d="" fill="#FFFFFF" transform="translate(0,0)"/>
<path d="" fill="#FFFFFF" transform="translate(0,0)"/>
<path d="" fill="#FFFFFF" transform="translate(0,0)"/>
<path d="" fill="#FFFFFF" transform="translate(0,0)"/>
<path d="" fill="#FFFFFF" transform="translate(0,0)"/>
<path d="" fill="#FFFFFF" transform="translate(0,0)"/>
<path d="" fill="#FFFFFF" transform="translate(0,0)"/>
<path d="" fill="#FFFFFF" transform="translate(0,0)"/>
<path d="" fill="#FFFFFF" transform="translate(0,0)"/>
<path d="" fill="#FFFFFF" transform="translate(0,0)"/>
<path d="" fill="#FFFFFF" transform="translate(0,0)"/>
<path d="" fill="#FFFFFF" transform="translate(0,0)"/>
<path d="" fill="#FFFFFF" transform="translate(0,0)"/>
<path d="" fill="#FFFFFF" transform="translate(0,0)"/>
<path d="" fill="#FFFFFF" transform="translate(0,0)"/>
<path d="M0 0 C2 1 2 1 2 1 Z " fill="#FFFFFF" transform="translate(380,30)"/>
<path d="M0 0 C2 1 2 1 2 1 Z " fill="#FFFFFF" transform="translate(130,30)"/>
<path d="M0 0 C2 1 2 1 2 1 Z " fill="#FFFFFF" transform="translate(152,19)"/>
<path d="M0 0 C2 1 2 1 2 1 Z " fill="#FFFFFF" transform="translate(356,18)"/>
<path d="M0 0 C2 1 2 1 2 1 Z " fill="#FFFFFF" transform="translate(154,18)"/>
<path d="M0 0 C2 1 2 1 2 1 Z " fill="#FFFFFF" transform="translate(351,16)"/>
<path d="M0 0 C2 1 2 1 2 1 Z " fill="#FFFFFF" transform="translate(159,16)"/>
<path d="M0 0 C2 1 2 1 2 1 Z " fill="#FEFEFE" transform="translate(346,14)"/>
<path d="M0 0 C2 1 2 1 2 1 Z " fill="#FFFFFF" transform="translate(164,14)"/>
<path d="" fill="#FFFFFF" transform="translate(0,0)"/>
<path d="" fill="#FFFFFF" transform="translate(0,0)"/>
<path d="" fill="#FFFFFF" transform="translate(0,0)"/>
<path d="" fill="#FFFFFF" transform="translate(0,0)"/>
<path d="" fill="#FFFFFF" transform="translate(0,0)"/>
<path d="" fill="#FFFFFF" transform="translate(0,0)"/>
<path d="" fill="#FFFFFF" transform="translate(0,0)"/>
<path d="" fill="#FFFFFF" transform="translate(0,0)"/>
<path d="" fill="#FFFFFF" transform="translate(0,0)"/>
<path d="" fill="#FFFFFF" transform="translate(0,0)"/>
<path d="" fill="#FFFFFF" transform="translate(0,0)"/>
<path d="" fill="#FFFFFF" transform="translate(0,0)"/>
<path d="" fill="#FFFFFF" transform="translate(0,0)"/>
<path d="" fill="#FFFFFF" transform="translate(0,0)"/>
<path d="" fill="#FFFFFF" transform="translate(0,0)"/>
<path d="" fill="#FFFFFF" transform="translate(0,0)"/>
<path d="" fill="#FFFFFF" transform="translate(0,0)"/>
<path d="" fill="#FFFFFF" transform="translate(0,0)"/>
<path d="" fill="#FFFFFF" transform="translate(0,0)"/>
<path d="" fill="#FFFFFF" transform="translate(0,0)"/>
<path d="" fill="#FFFFFF" transform="translate(0,0)"/>
<path d="" fill="#FFFFFF" transform="translate(0,0)"/>
<path d="" fill="#FFFFFF" transform="translate(0,0)"/>
<path d="" fill="#FFFFFF" transform="translate(0,0)"/>
<path d="" fill="#FFFFFF" transform="translate(0,0)"/>
<path d="" fill="#FFFFFF" transform="translate(0,0)"/>
<path d="" fill="#FFFFFF" transform="translate(0,0)"/>
<path d="" fill="#FFFFFF" transform="translate(0,0)"/>
<path d="" fill="#FFFFFF" transform="translate(0,0)"/>
<path d="" fill="#FFFFFF" transform="translate(0,0)"/>
<path d="" fill="#FFFFFF" transform="translate(0,0)"/>
<path d="" fill="#FFFFFF" transform="translate(0,0)"/>
<path d="" fill="#FFFFFF" transform="translate(0,0)"/>
<path d="" fill="#FFFFFF" transform="translate(0,0)"/>
<path d="" fill="#FFFFFF" transform="translate(0,0)"/>
<path d="" fill="#FFFFFF" transform="translate(0,0)"/>
<path d="" fill="#FFFFFF" transform="translate(0,0)"/>
<path d="" fill="#FFFFFF" transform="translate(0,0)"/>
<path d="" fill="#FFFFFF" transform="translate(0,0)"/>
<path d="" fill="#FFFFFF" transform="translate(0,0)"/>
<path d="" fill="#FFFFFF" transform="translate(0,0)"/>
<path d="" fill="#FFFFFF" transform="translate(0,0)"/>
<path d="" fill="#FFFFFF" transform="translate(0,0)"/>
<path d="" fill="#FFFFFF" transform="translate(0,0)"/>
<path d="" fill="#FFFFFF" transform="translate(0,0)"/>
<path d="" fill="#FFFFFF" transform="translate(0,0)"/>
<path d="" fill="#FFFFFF" transform="translate(0,0)"/>
<path d="" fill="#FFFFFF" transform="translate(0,0)"/>
<path d="" fill="#FFFFFF" transform="translate(0,0)"/>
<path d="" fill="#FFFFFF" transform="translate(0,0)"/>
<path d="" fill="#FFFFFF" transform="translate(0,0)"/>
<path d="" fill="#FFFFFF" transform="translate(0,0)"/>
<path d="" fill="#FFFFFF" transform="translate(0,0)"/>
<path d="" fill="#FFFFFF" transform="translate(0,0)"/>
<path d="" fill="#FFFFFF" transform="translate(0,0)"/>
<path d="" fill="#FFFFFF" transform="translate(0,0)"/>
<path d="" fill="#FFFFFF" transform="translate(0,0)"/>
<path d="" fill="#FFFFFF" transform="translate(0,0)"/>
<path d="" fill="#FFFFFF" transform="translate(0,0)"/>
<path d="" fill="#FFFFFF" transform="translate(0,0)"/>
<path d="" fill="#FFFFFF" transform="translate(0,0)"/>
<path d="" fill="#FFFFFF" transform="translate(0,0)"/>
<path d="" fill="#FFFFFF" transform="translate(0,0)"/>
<path d="" fill="#FFFFFF" transform="translate(0,0)"/>
<path d="" fill="#FFFFFF" transform="translate(0,0)"/>
<path d="" fill="#FFFFFF" transform="translate(0,0)"/>
<path d="" fill="#FFFFFF" transform="translate(0,0)"/>
<path d="" fill="#FFFFFF" transform="translate(0,0)"/>
<path d="" fill="#FFFFFF" transform="translate(0,0)"/>
<path d="" fill="#FFFFFF" transform="translate(0,0)"/>
<path d="" fill="#FFFFFF" transform="translate(0,0)"/>
<path d="" fill="#FFFFFF" transform="translate(0,0)"/>
<path d="" fill="#FFFFFF" transform="translate(0,0)"/>
<path d="" fill="#FFFFFF" transform="translate(0,0)"/>
<path d="" fill="#FFFFFF" transform="translate(0,0)"/>
<path d="" fill="#FFFFFF" transform="translate(0,0)"/>
<path d="" fill="#FFFFFF" transform="translate(0,0)"/>
<path d="" fill="#FFFFFF" transform="translate(0,0)"/>
<path d="" fill="#FFFFFF" transform="translate(0,0)"/>
<path d="" fill="#FFFFFF" transform="translate(0,0)"/>
<path d="" fill="#FFFFFF" transform="translate(0,0)"/>
<path d="" fill="#FFFFFF" transform="translate(0,0)"/>
<path d="" fill="#FFFFFF" transform="translate(0,0)"/>
<path d="" fill="#FFFFFF" transform="translate(0,0)"/>
<path d="" fill="#FFFFFF" transform="translate(0,0)"/>
<path d="" fill="#FFFFFF" transform="translate(0,0)"/>
<path d="" fill="#FFFFFF" transform="translate(0,0)"/>
<path d="" fill="#FFFFFF" transform="translate(0,0)"/>
<path d="" fill="#FFFFFF" transform="translate(0,0)"/>
<path d="" fill="#FFFFFF" transform="translate(0,0)"/>
<path d="" fill="#FFFFFF" transform="translate(0,0)"/>
<path d="" fill="#FFFFFF" transform="translate(0,0)"/>
<path d="" fill="#FFFFFF" transform="translate(0,0)"/>
<path d="" fill="#FFFFFF" transform="translate(0,0)"/>
<path d="" fill="#FFFFFF" transform="translate(0,0)"/>
<path d="" fill="#FFFFFF" transform="translate(0,0)"/>
<path d="" fill="#FFFFFF" transform="translate(0,0)"/>
<path d="" fill="#FFFFFF" transform="translate(0,0)"/>
<path d="" fill="#FFFFFF" transform="translate(0,0)"/>
<path d="" fill="#FFFFFF" transform="translate(0,0)"/>
<path d="" fill="#FFFFFF" transform="translate(0,0)"/>
<path d="" fill="#FFFFFF" transform="translate(0,0)"/>
<path d="" fill="#FFFFFF" transform="translate(0,0)"/>
<path d="" fill="#FFFFFF" transform="translate(0,0)"/>
<path d="" fill="#FFFFFF" transform="translate(0,0)"/>
<path d="" fill="#FFFFFF" transform="translate(0,0)"/>
<path d="" fill="#FFFFFF" transform="translate(0,0)"/>
<path d="" fill="#FFFFFF" transform="translate(0,0)"/>
<path d="" fill="#FFFFFF" transform="translate(0,0)"/>
<path d="" fill="#FFFFFF" transform="translate(0,0)"/>
<path d="" fill="#FFFFFF" transform="translate(0,0)"/>
<path d="" fill="#FFFFFF" transform="translate(0,0)"/>
<path d="" fill="#FFFFFF" transform="translate(0,0)"/>
<path d="" fill="#FFFFFF" transform="translate(0,0)"/>
<path d="" fill="#FFFFFF" transform="translate(0,0)"/>
<path d="" fill="#FFFFFF" transform="translate(0,0)"/>
<path d="" fill="#FFFFFF" transform="translate(0,0)"/>
<path d="" fill="#FFFFFF" transform="translate(0,0)"/>
<path d="" fill="#FFFFFF" transform="translate(0,0)"/>
<path d="" fill="#FFFFFF" transform="translate(0,0)"/>
<path d="" fill="#FFFFFF" transform="translate(0,0)"/>
<path d="" fill="#FFFFFF" transform="translate(0,0)"/>
<path d="" fill="#FFFFFF" transform="translate(0,0)"/>
<path d="" fill="#FFFFFF" transform="translate(0,0)"/>
<path d="" fill="#FFFFFF" transform="translate(0,0)"/>
<path d="" fill="#FFFFFF" transform="translate(0,0)"/>
<path d="" fill="#FFFFFF" transform="translate(0,0)"/>
<path d="" fill="#FFFFFF" transform="translate(0,0)"/>
<path d="" fill="#FFFFFF" transform="translate(0,0)"/>
<path d="" fill="#FFFFFF" transform="translate(0,0)"/>
<path d="" fill="#FFFFFF" transform="translate(0,0)"/>
<path d="" fill="#FFFFFF" transform="translate(0,0)"/>
<path d="" fill="#FFFFFF" transform="translate(0,0)"/>
<path d="" fill="#FFFFFF" transform="translate(0,0)"/>
<path d="" fill="#FFFFFF" transform="translate(0,0)"/>
<path d="" fill="#FFFFFF" transform="translate(0,0)"/>
<path d="" fill="#FFFFFF" transform="translate(0,0)"/>
<path d="" fill="#FFFFFF" transform="translate(0,0)"/>
<path d="" fill="#FFFFFF" transform="translate(0,0)"/>
<path d="" fill="#FFFFFF" transform="translate(0,0)"/>
<path d="" fill="#FFFFFF" transform="translate(0,0)"/>
<path d="" fill="#FFFFFF" transform="translate(0,0)"/>
<path d="" fill="#FFFFFF" transform="translate(0,0)"/>
<path d="" fill="#FFFFFF" transform="translate(0,0)"/>
<path d="" fill="#FFFFFF" transform="translate(0,0)"/>
<path d="" fill="#FFFFFF" transform="translate(0,0)"/>
</svg>
