<svg version="1.2" xmlns="http://www.w3.org/2000/svg" viewBox="0 0 560 102" width="560" height="102">
	<title>Frame 1261155267 (1)-svg</title>
	<style>
		.s0 { fill: #f9fafa } 
		.s1 { fill: #373533 } 
		.s2 { fill: #000000 } 
		.s3 { fill: #db4444 } 
	</style>
	<path id="Layer" fill-rule="evenodd" class="s0" d="m13.1 42.4l34.4 0.1c-0.2-0.8-3.2-6.9-3.6-6.9h-18.6l9.2-19-4.5-6.1v0.2z"/>
	<path id="Layer" fill-rule="evenodd" class="s0" d="m3.9 58.5l4.4 0.3h3.7c0.7 0 4.1-6.9 4.8-6.9h8.9l18.7 0.1c0.2 0.8 4.1 7.2 4.4 7.2h7.5c-0.1-0.7-3-6.1-3.5-7.2-0.4-0.9-3.4-7-3.8-7h-38z"/>
	<path id="Layer" fill-rule="evenodd" class="s1" d="m22.6 17.2l8.1-14.2 8.4 14.8h21.9c0 0.7-4.9 9.3-5.6 10.6-0.6 1.1-5.7 10.3-5.7 10.6v0.1c0 0 5.1 10 5.5 10.9 0.6 1 5.5 10.4 5.5 10.9h-21.9l-8.2 14.1-8.2-14.3-19-0.3h-3.2c0.1-1.4 10.9-20.2 10.9-21.3 0-0.9-9.6-18.5-10.7-21.4zm7.3-6.6l-16.9 31.7 34.4 0.1c-0.2-0.7-3.2-6.9-3.5-6.9h-18.7l9.3-18.9-4.5-6.1-0.1 0.1zm-19 34.4l-7 13.5 4.3 0.2h3.7c0.7 0 4.1-6.9 4.8-6.9h8.9l18.8 0.2c0.1 0.7 4 7.1 4.3 7.1h7.5c0-0.6-3-6-3.5-7.2-0.3-0.8-3.4-7-3.7-7l-38.1 0.1z"/>
	<path id="Layer" fill-rule="evenodd" class="s2" d="m482.8 92.3q-0.1-0.9-0.9-1.4-0.7-0.4-1.7-0.4-0.8 0-1.4 0.2-0.6 0.3-0.9 0.7-0.3 0.4-0.3 1 0 0.5 0.2 0.8 0.2 0.3 0.6 0.5 0.3 0.3 0.7 0.4 0.4 0.1 0.7 0.2l1.2 0.3q0.5 0.2 1 0.4 0.6 0.2 1.1 0.5 0.5 0.4 0.9 1 0.3 0.5 0.3 1.3 0 1-0.5 1.7-0.5 0.8-1.4 1.3-1 0.4-2.3 0.4-1.3 0-2.2-0.4-0.9-0.4-1.4-1.1-0.5-0.7-0.6-1.7h1.5q0 0.7 0.4 1.1 0.4 0.4 1 0.6 0.6 0.2 1.3 0.2 0.8 0 1.4-0.2 0.7-0.3 1.1-0.8 0.3-0.4 0.3-1.1 0-0.6-0.3-0.9-0.3-0.4-0.8-0.6-0.6-0.2-1.2-0.4l-1.4-0.4q-1.4-0.4-2.2-1.1-0.8-0.8-0.8-1.9 0-1 0.6-1.7 0.5-0.8 1.4-1.2 0.9-0.4 2-0.4 1.1 0 2 0.4 0.9 0.4 1.4 1.1 0.5 0.7 0.5 1.6zm3.7 8.7v-8.7h1.3v8.7zm0.7-10.2q-0.4 0-0.7-0.2-0.2-0.3-0.2-0.7 0-0.4 0.2-0.6 0.3-0.3 0.7-0.3 0.4 0 0.7 0.3 0.3 0.2 0.3 0.6 0 0.4-0.3 0.7-0.3 0.2-0.7 0.2zm4.5 5v5.2h-1.4v-8.7h1.3v1.3h0.1q0.3-0.6 1-1 0.6-0.4 1.6-0.4 0.9 0 1.5 0.3 0.7 0.4 1.1 1.1 0.3 0.7 0.3 1.9v5.5h-1.3v-5.5q0-1-0.5-1.6-0.6-0.5-1.5-0.5-0.6 0-1.1 0.2-0.5 0.3-0.8 0.9-0.3 0.5-0.3 1.3zm11.5 5.4q-1.2 0-2.1-0.6-0.9-0.6-1.3-1.6-0.5-1-0.5-2.3 0-1.3 0.5-2.4 0.5-1 1.3-1.6 0.9-0.5 2.1-0.5 0.9 0 1.7 0.3 0.7 0.3 1.2 1 0.5 0.6 0.6 1.4h-1.4q-0.1-0.6-0.7-1.1-0.5-0.4-1.4-0.4-0.7 0-1.3 0.4-0.6 0.4-1 1.1-0.3 0.7-0.3 1.7 0 1 0.3 1.8 0.4 0.7 0.9 1.2 0.6 0.4 1.4 0.4 0.6 0 1-0.2 0.4-0.2 0.7-0.5 0.3-0.4 0.4-0.8h1.4q-0.1 0.7-0.6 1.3-0.4 0.7-1.2 1-0.7 0.4-1.7 0.4zm9.1 0q-1.3 0-2.2-0.6-0.9-0.5-1.4-1.5-0.5-1.1-0.5-2.4 0-1.3 0.5-2.4 0.5-1 1.4-1.6 0.9-0.5 2.1-0.5 0.6 0 1.3 0.2 0.7 0.2 1.2 0.7 0.6 0.5 0.9 1.4 0.3 0.8 0.3 2v0.6h-6.3q0 0.9 0.3 1.5 0.3 0.7 1 1 0.6 0.4 1.4 0.4 0.5 0 0.9-0.2 0.5-0.1 0.8-0.4 0.3-0.3 0.5-0.8l1.3 0.4q-0.2 0.6-0.7 1.1-0.5 0.5-1.2 0.8-0.7 0.3-1.6 0.3zm-2.7-4.1q0-0.1 0-0.2v-0.8q0-0.1 0-0.2h-0.4v1.2zm4.9-1.2q0-0.7-0.2-1.3-0.3-0.6-0.9-0.9-0.5-0.3-1.2-0.3-0.8 0-1.4 0.4-0.6 0.4-0.9 1-0.3 0.5-0.3 1.1zm11.9-6.5v11.6h-1.4v-10.2l-2.9 1.9v-1.4l2.9-1.9zm7.1-0.2q0.7 0 1.4 0.3 0.7 0.2 1.3 0.9 0.6 0.6 1 1.6 0.3 1.1 0.3 2.7 0 1.6-0.3 2.8-0.2 1.2-0.8 2-0.5 0.8-1.3 1.2-0.8 0.5-1.8 0.5-1 0-1.7-0.4-0.8-0.4-1.3-1.1-0.5-0.7-0.6-1.6h1.4q0.2 0.8 0.7 1.3 0.6 0.5 1.5 0.5 1.4 0 2.1-1.2 0.8-1.1 0.8-3.3h-0.1q-0.3 0.5-0.7 0.8-0.5 0.4-1 0.6-0.5 0.2-1.1 0.2-1 0-1.9-0.5-0.8-0.5-1.3-1.4-0.5-0.9-0.5-2 0-1.1 0.5-2 0.5-0.9 1.3-1.4 0.9-0.5 2.1-0.5zm0 1.3q-0.7 0-1.3 0.3-0.6 0.4-0.9 1-0.3 0.6-0.3 1.3 0 0.7 0.3 1.3 0.3 0.6 0.9 1 0.5 0.3 1.2 0.3 0.6 0 1.1-0.2 0.4-0.2 0.8-0.6 0.3-0.4 0.5-0.8 0.2-0.5 0.2-1 0-0.7-0.3-1.3-0.3-0.6-0.9-1-0.6-0.3-1.3-0.3zm10 10.7q-1.2 0-2.1-0.5-0.9-0.4-1.4-1.1-0.5-0.7-0.5-1.7 0-0.7 0.3-1.4 0.3-0.6 0.8-1 0.6-0.4 1.2-0.5v-0.1q-0.8-0.2-1.3-1-0.5-0.7-0.5-1.6 0-0.9 0.4-1.6 0.5-0.7 1.3-1.1 0.8-0.4 1.8-0.4 1 0 1.8 0.4 0.8 0.4 1.3 1.1 0.4 0.7 0.4 1.6 0 0.9-0.5 1.6-0.5 0.8-1.3 1v0.1q0.6 0.1 1.1 0.5 0.5 0.4 0.8 1 0.3 0.7 0.4 1.4-0.1 1-0.6 1.7-0.5 0.7-1.4 1.1-0.8 0.5-2 0.5zm0-1.3q0.8 0 1.4-0.2 0.5-0.3 0.8-0.8 0.4-0.4 0.4-1.1 0-0.6-0.4-1.1-0.3-0.5-0.9-0.8-0.6-0.3-1.3-0.3-0.7 0-1.3 0.3-0.6 0.3-0.9 0.8-0.4 0.5-0.4 1.1 0 0.7 0.3 1.1 0.3 0.5 0.9 0.8 0.6 0.2 1.4 0.2zm0-5.5q0.6 0 1.1-0.3 0.5-0.2 0.8-0.7 0.3-0.4 0.3-1 0-0.6-0.3-1-0.3-0.5-0.8-0.7-0.5-0.3-1.1-0.3-0.7 0-1.1 0.3-0.5 0.2-0.8 0.7-0.3 0.4-0.3 1 0 0.6 0.3 1 0.3 0.5 0.8 0.7 0.5 0.3 1.1 0.3zm9.9 6.8q-1.3 0-2.2-0.7-0.9-0.7-1.3-2.1-0.5-1.3-0.5-3.2 0-1.9 0.5-3.2 0.4-1.4 1.3-2.1 1-0.7 2.2-0.7 1.3 0 2.2 0.7 0.9 0.7 1.4 2.1 0.5 1.3 0.5 3.2 0 1.9-0.5 3.2-0.5 1.4-1.4 2.1-0.9 0.7-2.2 0.7zm0-1.3q1.3 0 2-1.2 0.7-1.2 0.7-3.5 0-1.5-0.3-2.6-0.3-1.1-0.9-1.6-0.6-0.6-1.5-0.6-1.2 0-1.9 1.3-0.8 1.2-0.8 3.5 0 1.5 0.4 2.5 0.3 1.1 0.9 1.7 0.6 0.5 1.4 0.5z"/>
	<path id="Layer" fill-rule="evenodd" class="s3" d="m155.7 50l-2.8 26h-65.8v-2h2.4q3.3 0 5.2-1.2 1.5-0.7 2.2-2.6 0.6-1.3 0.6-6.9v-48.8q0-5.7-0.6-7.1-0.6-1.4-2.4-2.4-1.8-1.1-5-1.1h-2.4v-2.1h39.5v2.1h-3.2q-3.2 0-5.2 1.1-1.4 0.8-2.2 2.6-0.6 1.4-0.6 6.9v47.3q0 5.7 0.6 7.3 0.7 1.5 2.6 2.3 1.3 0.4 6.6 0.4h6.2q5.9 0 9.8-2 4-2.1 6.8-6.6 2.9-4.5 5.5-13.2zm45 24v2h-38.8v-2h2.5q3.2 0 5.2-1.2 1.4-0.7 2.1-2.6 0.6-1.3 0.6-6.9v-48.8q0-5.7-0.6-7.1-0.6-1.4-2.4-2.4-1.8-1.1-4.9-1.1h-2.5v-2.1h38.8v2.1h-2.5q-3.2 0-5.2 1.1-1.4 0.8-2.2 2.6-0.6 1.4-0.6 6.9v48.8q0 5.7 0.6 7.1 0.6 1.4 2.4 2.5 1.9 1.1 5 1.1zm56-23.3l20.1-48.9h30.2v2.1h-2.4q-3.3 0-5.2 1.1-1.4 0.8-2.2 2.6-0.6 1.3-0.6 6.8v48.9q0 5.7 0.6 7.1 0.6 1.4 2.4 2.5 1.9 1.1 5 1.1h2.4v2h-38.7v-2h2.4q3.3 0 5.3-1.2 1.3-0.7 2.2-2.6 0.6-1.3 0.6-6.9v-54.9l-28.5 67.6h-1.3l-28.9-67.2v52.3q0 5.4 0.3 6.7 0.7 2.7 3.1 4.5 2.4 1.7 7.5 1.7v2h-25.4v-2h0.7q2.5 0 4.6-0.8 2.2-0.9 3.3-2.3 1.1-1.4 1.7-4 0.1-0.6 0.1-5.6v-46.9q0-5.6-0.6-7-0.6-1.4-2.5-2.4-1.8-1.1-5-1.1h-2.3v-2.1h30.3zm99-20.5l26.1 32.7q5.5 6.9 9.5 9.3 2.8 1.7 5.8 1.8 4-0.6 6.6-3.3 2.6-2.7 6.3-11.2l26.5-59.2h1.1l26.7 60.8q3.9 8.7 6.3 10.9 1.9 1.7 5.3 2v2h-35.9v-2h1.5q4.3 0 6-1.2 1.2-0.9 1.2-2.5 0-1-0.3-2.1-0.1-0.4-1.6-4.1l-4-9.2h-26.2l-3.1 7.2q-1.5 3.6-1.5 6 0 3.1 2.5 4.6 1.5 0.8 7.3 1.3v2h-63v-2q3.7-0.3 4.7-1.2 1.1-0.8 1.1-2 0-2.3-5-8.6l-17-21.4-2.7 2.3v20.2q0 5.8 0.6 7.2 0.7 1.5 2.5 2.5 1.9 1 6 1v2h-37.4v-2h2.4q3.3 0 5.2-1.2 1.5-0.7 2.2-2.6 0.6-1.3 0.6-6.9v-48.8q0-5.6-0.6-7.1-0.6-1.4-2.4-2.4-1.8-1.1-5-1.1h-2.4v-2h36.9v2q-3.8 0-5.7 1.1-1.5 0.7-2.3 2.5-0.6 1.4-0.6 7v23.1l27.5-22.2q5.7-4.7 5.7-7.5 0-2.1-2.3-3.3-1.2-0.6-6-0.7v-2h28.9v2q-3.9 0.2-6.1 1.4-2.2 1.1-10.2 7.5zm85.3 20.7l-11.1-25.6-11.3 25.6zm65.9-8.7v20.8q0 6 0.7 7.6 0.8 1.5 2.7 2.5 1.8 0.9 6.9 0.9v2h-38v-2q5.2 0 7-0.9 1.9-1 2.6-2.6 0.7-1.5 0.7-7.5v-48.1q0-6-0.7-7.6-0.7-1.6-2.6-2.5-1.9-0.9-7-0.9v-2h34.5q13.5 0 19.7 1.8 6.2 1.9 10.2 6.9 3.9 5 3.9 11.7 0 8.2-5.9 13.6-3.8 3.4-10.6 5.1l17.9 25.1q3.5 4.8 4.9 6 2.3 1.7 5.2 1.9v2h-23.3l-23.9-33.8zm0-36.3v32.4h3.1q7.6 0 11.4-1.3 3.8-1.5 5.9-5.1 2.2-3.6 2.2-9.5 0-8.5-4-12.5-4-4-12.8-4z"/>
</svg>